<svg width="73" height="20" viewBox="0 0 73 20" fill="none" xmlns="http://www.w3.org/2000/svg">
<path d="M7.79115 20V12.7767L0 0H5.07459L8.20982 5.25505L9.94225 8.20982H10.2406L11.9418 5.25505L15.0746 0H20.0602L12.269 12.7767V20H7.79115Z" fill="black"/>
<path d="M26.9875 20V4.03032H20.539V0H37.9139V4.03032H31.4653V20H26.9875Z" fill="black"/>
<path d="M42.6588 20L38.6309 0H43.8258L45.3489 9.01588L46.0659 15.6136H46.3956L47.6203 9.01588L49.9735 0H56.333L58.691 8.95573L59.9447 15.6136H60.2719L60.9889 8.95573L62.512 0H67.5866L63.5563 20H57.0188L54.6006 11.1333L53.2579 4.8051H52.9596L51.6169 11.1333L49.2276 20H42.6588Z" fill="black"/>
<path d="M66.5736 19.9997V14.7158H72.1848V19.9997H66.5736Z" fill="black"/>
</svg>
