<svg width="18" height="9" viewBox="0 0 18 9" fill="none" xmlns="http://www.w3.org/2000/svg">
<g clip-path="url(#clip0_28_328)">
<path d="M18 -3.5C20.5361 -3.5 22.5 -1.66089 22.5 0.5C22.5 2.66089 20.5361 4.5 18 4.5C15.4639 4.5 13.5 2.66089 13.5 0.5C13.5 -1.66089 15.4639 -3.5 18 -3.5Z" stroke="black"/>
<path d="M18 4.5C20.5361 4.5 22.5 6.33911 22.5 8.5C22.5 10.6609 20.5361 12.5 18 12.5C15.4639 12.5 13.5 10.6609 13.5 8.5C13.5 6.33911 15.4639 4.5 18 4.5Z" stroke="black"/>
<line y1="4.5" x2="18" y2="4.5" stroke="black"/>
</g>
<defs>
<clipPath id="clip0_28_328">
<rect width="9" height="18" fill="white" transform="translate(0 9) rotate(-90)"/>
</clipPath>
</defs>
</svg>
