<svg width="30" height="30" viewBox="0 0 30 30" fill="current" xmlns="http://www.w3.org/2000/svg">
<path d="M12.9669 22.4133C12.9693 22.679 12.9712 22.886 12.9712 23H18.0261C18.0261 22.89 18.0274 22.6973 18.0292 22.4399L18.0292 22.4392L18.0292 22.4385C18.0327 21.919 18.0379 21.1363 18.0379 20.2359C18.0379 19.295 17.7123 18.6828 17.3479 18.3692C19.6155 18.1206 21.9995 17.2682 21.9995 13.3997C22.0149 12.3971 21.6383 11.4273 20.9484 10.6923C21.053 10.4354 21.4023 9.41115 20.8472 8.02323C20.8472 8.02323 19.9934 7.75299 18.0481 9.05583C16.378 8.60428 14.6159 8.60428 12.9459 9.05583C10.9988 7.75299 10.1434 8.02323 10.1434 8.02323C9.58998 9.41448 9.93924 10.4387 10.0438 10.6923C9.35609 11.4272 8.98035 12.3953 8.99438 13.3964C8.99438 17.2565 11.3734 18.1206 13.6376 18.3742C13.3457 18.6261 13.0808 19.0698 12.9897 19.7221C12.4093 19.9823 10.933 20.4277 10.0253 18.888C10.0253 18.888 9.48706 17.9204 8.46292 17.8487C8.46292 17.8487 7.46913 17.837 8.39373 18.4609C8.39373 18.4609 9.06188 18.7679 9.52418 19.9356C9.52418 19.9356 10.1231 21.7339 12.9577 21.125C12.9596 21.6045 12.9637 22.0606 12.9669 22.4133Z" fill="current"/>
</svg>