<svg width="30" height="30" viewBox="0 0 30 30" fill="current" xmlns="http://www.w3.org/2000/svg">
<path d="M11.375 22H8.1875V11.9688H11.375V22ZM9.78125 10.5625C8.75 10.5625 8 9.8125 8 8.78125C8 7.75 8.84375 7 9.78125 7C10.8125 7 11.5625 7.75 11.5625 8.78125C11.5625 9.8125 10.8125 10.5625 9.78125 10.5625ZM23 22H19.8125V16.5625C19.8125 14.9688 19.1562 14.5 18.2187 14.5C17.2812 14.5 16.3437 15.25 16.3437 16.6562V22H13.1562V11.9688H16.1562V13.375C16.4375 12.7188 17.5625 11.6875 19.1562 11.6875C20.9375 11.6875 22.8125 12.7187 22.8125 15.8125V22H23Z" fill="current"/>
</svg>